<?xml version="1.0" encoding="utf-8"?>
<!-- Generator: Adobe Illustrator 26.2.0, SVG Export Plug-In . SVG Version: 6.00 Build 0)  -->
<svg version="1.1" id="Layer_1" xmlns="http://www.w3.org/2000/svg" xmlns:xlink="http://www.w3.org/1999/xlink" x="0px" y="0px"
	 viewBox="0 0 400 400" style="enable-background:new 0 0 400 400;" xml:space="preserve">
<style type="text/css">
	.st0{fill:#FFFFFF;}
	.st1{fill:#F47DF4;}
</style>
<g>
	<g>
		<path class="st0" d="M153.95,317.27c-12.05,0-20.46-3.73-24.32-10.78c-4.41-8.06-1.86-18.98,7.18-30.75
			c8.35-10.87,21.44-21.5,36.85-29.93c17.58-9.62,36-15.14,50.54-15.14c12.05,0,20.46,3.73,24.32,10.78
			c4.41,8.06,1.86,18.98-7.18,30.75c-8.35,10.87-21.44,21.5-36.85,29.93C186.9,311.76,168.48,317.27,153.95,317.27z"/>
		<path class="st1" d="M224.2,234.67c10.04,0,17.61,2.84,20.81,8.7c7.45,13.62-11.55,38.36-42.44,55.26
			c-17.61,9.64-35.29,14.65-48.62,14.65c-10.04,0-17.61-2.84-20.81-8.7c-7.45-13.62,11.55-38.36,42.44-55.26
			C193.2,239.68,210.88,234.67,224.2,234.67 M224.2,226.67v8V226.67c-15.19,0-34.31,5.7-52.46,15.63
			c-15.89,8.7-29.43,19.71-38.1,31.01c-10.07,13.1-12.74,25.57-7.52,35.11c4.54,8.29,14.42,12.86,27.83,12.86
			c15.18,0,34.3-5.7,52.46-15.63c15.89-8.7,29.43-19.71,38.1-31.01c10.07-13.1,12.74-25.57,7.52-35.11
			C247.49,231.24,237.61,226.67,224.2,226.67L224.2,226.67z"/>
	</g>
	<g>
		<path class="st0" d="M139.66,293.77c-14.05,0-19.92-5.34-22.37-9.82c-8.3-15.17,11-40.59,44.89-59.13
			c18.28-10,37.1-15.74,51.63-15.74c14.05,0,19.92,5.34,22.37,9.82c8.3,15.17-11,40.59-44.89,59.13
			C173.01,288.03,154.19,293.77,139.66,293.77z"/>
		<path class="st1" d="M213.81,213.08c9.18,0,16.01,2.52,18.86,7.74c6.98,12.75-12.41,36.8-43.3,53.7
			c-18.25,9.99-36.44,15.25-49.71,15.25c-9.18,0-16.01-2.52-18.86-7.74c-6.98-12.75,12.41-36.8,43.3-53.7
			C182.35,218.34,200.54,213.08,213.81,213.08 M213.81,205.08c-15.18,0-34.7,5.92-53.55,16.23c-15.84,8.67-29.42,19.46-38.24,30.4
			c-10.34,12.83-13.27,24.96-8.24,34.16c2.97,5.43,9.87,11.9,25.88,11.9c15.18,0,34.7-5.92,53.55-16.23
			c15.84-8.67,29.42-19.46,38.24-30.4c10.34-12.83,13.27-24.96,8.24-34.16C236.72,211.55,229.82,205.08,213.81,205.08L213.81,205.08
			z"/>
	</g>
	<g>
		<path class="st0" d="M135.32,276.19c-14.37,0-24.93-4.84-29.74-13.63c-4.99-9.12-3.09-21.06,5.35-33.62
			c7.92-11.78,20.81-22.93,36.3-31.41c16.09-8.81,32.96-13.66,47.49-13.66c14.37,0,24.93,4.84,29.74,13.63
			c9.97,18.23-8.33,46.79-41.66,65.03C166.72,271.34,149.85,276.19,135.32,276.19z"/>
		<path class="st1" d="M194.73,187.87c12.34,0,22,3.83,26.23,11.55c8.76,16.01-9.18,42.69-40.07,59.6
			c-15.99,8.75-32.32,13.17-45.57,13.17c-12.34,0-22-3.83-26.23-11.55c-8.76-16.01,9.18-42.69,40.07-59.6
			C165.16,192.29,181.49,187.87,194.73,187.87 M194.74,179.87v8V179.87c-15.19,0-32.74,5.02-49.41,14.15
			c-16.04,8.78-29.43,20.39-37.7,32.69c-9.32,13.86-11.29,27.27-5.54,37.77c5.54,10.13,17.35,15.71,33.25,15.71
			c15.19,0,32.74-5.02,49.41-14.15c16.04-8.78,29.43-20.39,37.7-32.69c9.32-13.86,11.29-27.27,5.54-37.77
			C222.44,185.45,210.63,179.87,194.74,179.87L194.74,179.87z"/>
	</g>
</g>
<g>
	<g>
		<path class="st0" d="M212.42,206.92c-17.33,0-33.68-2.93-46.05-8.24c-13.44-5.77-20.84-13.86-20.84-22.78
			c0-8.92,7.4-17.01,20.84-22.78c12.37-5.31,28.72-8.24,46.05-8.24s33.68,2.93,46.05,8.24c13.44,5.77,20.84,13.86,20.84,22.78
			c0,8.92-7.4,17.01-20.84,22.78C246.11,204,229.75,206.92,212.42,206.92z"/>
		<path class="st1" d="M212.42,148.89c34.73,0,62.89,12.1,62.89,27.02c0,14.92-28.16,27.02-62.89,27.02s-62.89-12.1-62.89-27.02
			C149.53,160.98,177.69,148.89,212.42,148.89 M212.42,140.89c-17.86,0-34.78,3.04-47.63,8.56c-15,6.44-23.26,15.84-23.26,26.46
			s8.26,20.01,23.26,26.46c12.85,5.52,29.77,8.56,47.63,8.56s34.78-3.04,47.63-8.56c15-6.44,23.26-15.84,23.26-26.46
			s-8.26-20.01-23.26-26.46C247.2,143.93,230.28,140.89,212.42,140.89L212.42,140.89z"/>
	</g>
	<g>
		<path class="st0" d="M212.42,182.37c-17.33,0-33.68-2.93-46.05-8.24c-13.44-5.77-20.84-13.86-20.84-22.78s7.4-17.01,20.84-22.78
			c12.37-5.31,28.72-8.24,46.05-8.24c17.33,0,33.68,2.93,46.05,8.24c13.44,5.77,20.84,13.86,20.84,22.78s-7.4,17.01-20.84,22.78
			C246.11,179.44,229.75,182.37,212.42,182.37z"/>
		<path class="st1" d="M212.42,124.33c34.73,0,62.89,12.1,62.89,27.02c0,14.92-28.16,27.02-62.89,27.02s-62.89-12.1-62.89-27.02
			C149.53,136.43,177.69,124.33,212.42,124.33 M212.42,116.33c-17.86,0-34.78,3.04-47.63,8.56c-15,6.44-23.26,15.84-23.26,26.46
			c0,10.62,8.26,20.01,23.26,26.46c12.85,5.52,29.77,8.56,47.63,8.56s34.78-3.04,47.63-8.56c15-6.44,23.26-15.84,23.26-26.46
			c0-10.62-8.26-20.01-23.26-26.46C247.2,119.37,230.28,116.33,212.42,116.33L212.42,116.33z"/>
	</g>
	<g>
		<path class="st0" d="M212.42,164.24c-37.51,0-66.89-16.66-66.89-37.92s29.38-37.92,66.89-37.92c37.51,0,66.89,16.66,66.89,37.92
			S249.93,164.24,212.42,164.24z"/>
		<path class="st1" d="M212.42,92.4c34.73,0,62.89,15.19,62.89,33.92c0,18.73-28.16,33.92-62.89,33.92s-62.89-15.19-62.89-33.92
			C149.53,107.59,177.69,92.4,212.42,92.4 M212.42,84.4c-18.1,0-35.24,3.87-48.27,10.89c-14.59,7.87-22.62,18.89-22.62,31.03
			s8.03,23.16,22.62,31.03c13.03,7.02,30.17,10.89,48.27,10.89s35.24-3.87,48.27-10.89c14.59-7.87,22.62-18.89,22.62-31.03
			s-8.03-23.16-22.62-31.03C247.67,88.27,230.53,84.4,212.42,84.4L212.42,84.4z"/>
	</g>
</g>
</svg>
